<?xml version="1.0" encoding="utf-8"?>
<!-- Generator: Adobe Illustrator 24.3.2, SVG Export Plug-In . SVG Version: 6.00 Build 0)  -->
<svg version="1.1" id="Calque_1" xmlns="http://www.w3.org/2000/svg" xmlns:xlink="http://www.w3.org/1999/xlink" x="0px" y="0px"
	 viewBox="0 0 400 400" style="enable-background:new 0 0 400 400;" xml:space="preserve">
<style type="text/css">
	.st0{fill:#0954C5;}
	.st1{fill:#FCB040;}
	.st2{fill:#FFFFFF;}
</style>
<rect x="-0.97" y="-2.01" class="st0" width="400.97" height="402.01"/>
<rect x="118.15" y="267.35" class="st1" width="162.73" height="8.77"/>
<path class="st1" d="M186.67,144.14c3.73,0,8.86,0.71,10.46,0.95l-10.3-14.23l-10.06,14.23
	C178.28,144.84,182.97,144.14,186.67,144.14"/>
<path class="st2" d="M374.71,176.4c-1.15-1.15-2.8-1.95-4.89-2.36c-1.89-0.37-4.54-0.53-7.9-0.45c-1.75,0.04-3.3,0.11-4.6,0.22
	c-1.24,0.11-2.86,0.31-5,0.61c-1.43,0.24-2.95,0.5-4.56,0.78c-1.61,0.28-2.96,0.51-4.07,0.7c-0.96,0.18-1.79,0.32-2.57,0.43
	c-0.28,0.06-1.82,0.34-3.03,0.55c0.71-1.04,1.36-1.91,1.93-2.56c1.02-1.17,1.71-1.68,1.82-1.73l0.07,0.01l0.07-0.01
	c0.11-0.01,2.79-0.27,4.12-1.96c1.16-1.48,1.47-3.26,0.82-4.76c-0.54-1.24-1.36-2.05-2.44-2.39c-1.04-0.33-2.22-0.25-3.48,0.23
	c-1.22,0.47-2.39,1.27-3.48,2.37c-1.26,1.33-2.56,3.07-3.87,5.17c-1.31,2.09-2.64,4.5-3.96,7.18c-0.07,0.13-0.13,0.27-0.19,0.4
	c-0.39,0.09-1.02,0.2-1.93,0.36l-3.59,0.63c-1.31,0.23-2.45,0.42-3.46,0.56c-0.51,0.09-1.3,0.17-2.36,0.25
	c-1.07,0.08-2.14,0.14-3.17,0.16c-4.2,0.09-7.35-0.31-9.46-1.23c-0.65-0.24-1.19-0.55-1.65-0.98c-0.53-0.49-1.24-1.32-2.1-2.46
	c-0.87-1.2-1.5-1.92-2.01-2.28c-0.53-0.41-1.14-0.63-1.79-0.63h0c-0.31,0-0.58,0.07-0.8,0.13l-0.19,0.07
	c-0.84,0.37-1.38,1.15-1.49,2.17c-0.05,0.51,0.03,1.16,0.26,2.11c0.24,1.01,0.87,2.09,1.97,3.36c1.23,1.34,3.07,2.39,5.44,3.12
	c1.53,0.49,3.08,0.83,4.6,1.02c1.03,0.11,2.23,0.17,3.56,0.17c0.35,0,0.72,0,1.1-0.01l1.12-0.03c2.19-0.05,4.24-0.18,6.11-0.38
	c1.86-0.2,4.18-0.56,7.04-1.08l0.54-0.09c-0.49,1.11-0.97,2.24-1.44,3.42c-1.28,3.15-2.53,6.48-3.73,9.9
	c-1.2,3.45-2.36,6.99-3.44,10.53c-0.86,2.8-1.65,5.59-2.4,8.37c-0.25,0.29-0.51,0.6-0.8,0.93c-0.92,1.09-1.96,2.28-3.11,3.58
	c-1.13,1.28-2.39,2.62-3.74,4c-1.33,1.35-2.72,2.63-4.13,3.8c-1.39,1.16-2.82,2.18-4.23,3.03c-1.37,0.82-2.69,1.4-3.92,1.7
	c-0.51,0.11-1.07,0.18-1.66,0.2l-0.16,0c-0.46,0-0.88-0.07-1.24-0.2c-0.35-0.12-0.63-0.31-0.86-0.58c-0.18-0.21-0.27-0.55-0.27-0.98
	c0-0.56,0.15-1.2,0.44-1.9c0.34-0.81,0.74-1.66,1.2-2.53c0.48-0.92,0.94-1.83,1.38-2.75c0.48-0.99,0.81-1.98,0.99-2.92
	c0.2-1.06,0.13-2.08-0.2-3.04c-0.35-1.01-1.11-1.91-2.3-2.7c-0.47-0.28-1.06-0.58-1.82-0.89c-0.69-0.29-1.37-0.6-2.06-0.93
	c-0.66-0.32-1.24-0.64-1.73-0.97c-0.05-0.03-0.09-0.06-0.13-0.09c0.13-0.09,0.26-0.19,0.39-0.29c0.38-0.29,0.72-0.6,0.99-0.93
	c0.44-0.52,0.6-1.19,0.47-1.88c-0.08-0.61-0.34-1.14-0.77-1.58c-0.39-0.4-0.87-0.69-1.44-0.87c-0.53-0.17-1.12-0.23-1.72-0.17
	c-0.62,0.05-1.24,0.24-1.88,0.6c-1.39,0.88-2.35,1.99-2.86,3.28c-0.49,1.27-0.63,2.44-0.42,3.51c0.03,0.16,0.08,0.31,0.13,0.47
	c-1,1.12-2.27,2.3-3.82,3.53c-1.79,1.42-3.73,2.73-5.77,3.88c-2.01,1.13-4.02,2-5.97,2.59c-1.85,0.55-3.49,0.68-4.74,0.4
	c-0.69-0.17-1.26-0.47-1.74-0.93c-0.46-0.44-0.79-1.06-0.98-1.88c-0.22-0.9-0.25-2.08-0.1-3.5c0.16-1.47,0.58-3.26,1.26-5.33
	c0.14-0.45,0.19-0.86,0.18-1.22c0.13,0.11,0.27,0.21,0.41,0.3c0.75,0.46,1.51,0.62,2.19,0.49c0.77-0.15,1.37-0.61,1.73-1.35
	c0.36-0.74,0.31-1.64-0.17-2.68c-0.8-1.72-1.99-3.04-3.55-3.93c-1.47-0.84-3.08-1.39-4.78-1.62c-2.74-0.4-5.47-0.2-8.08,0.6
	c-2.59,0.79-4.97,2.03-7.08,3.68c-2.1,1.66-3.87,3.68-5.28,6.01c-0.91,1.52-1.57,3.14-2.03,4.83c-1.35,2.18-2.49,4.08-3.46,5.67
	c-2.6,4.31-4.17,6.91-6.06,8.97c-4.44,4.83-6.18,5.38-6.6,5.43c-0.28,0.03-0.54,0-0.54,0c-0.01-0.01-0.13-0.15-0.2-0.76
	c-0.64-4.72,2.91-10.45,6.67-16.52c1.97-3.19,4.02-6.49,5.6-9.92c0.42-1.18,0.68-2.04,0.8-2.65l0.07-0.33
	c0.11-0.5,0.27-1.19,0.27-2.04c0-0.75-0.13-1.36-0.21-1.76l-0.05-0.25c-0.09-0.52-0.3-1.02-0.58-1.4c-0.75-1.19-1.94-1.91-3.57-2.13
	c-0.4-0.05-0.77-0.07-1.11-0.07c-1.12,0-2.24,0.25-3.37,0.75c-1.61,0.77-3.48,1.95-5.72,3.61c-1.88,1.4-3.77,2.93-5.61,4.55
	c0.02-0.21,0.03-0.41,0.03-0.6c0-1.15-0.3-2.06-0.93-2.75c-0.89-0.88-2.1-1.37-3.66-1.48h-0.46c-1.25,0-2.47,0.27-3.64,0.82
	c-1.26,0.62-2.85,1.88-4.87,3.87c-0.92,0.9-1.83,1.86-2.74,2.87c0.18-0.4,0.35-0.77,0.51-1.13c0.64-1.46,0.74-1.76,0.8-1.99
	c0.06-0.3,0.09-0.55,0.09-0.73c0-1.37-0.84-2.99-4.85-2.99c-1.96,0-3.46,0.51-4.46,1.52c-0.92,0.93-1.82,2.73-2.77,5.51
	c-0.11,0.32-0.2,0.65-0.3,0.97c-0.17,0.18-0.33,0.36-0.48,0.57c-1.06,1.28-2.5,2.65-4.29,4.07c-1.79,1.42-3.74,2.73-5.77,3.88
	c-2,1.13-4.01,2-5.97,2.59c-1.86,0.55-3.48,0.68-4.74,0.4c-0.69-0.17-1.25-0.47-1.74-0.93c-0.46-0.44-0.79-1.06-0.98-1.88
	c-0.22-0.9-0.25-2.08-0.1-3.5c0.16-1.47,0.58-3.26,1.26-5.33c0.14-0.46,0.19-0.86,0.18-1.22c0.13,0.11,0.27,0.21,0.41,0.3
	c0.75,0.46,1.51,0.62,2.19,0.48c0.77-0.15,1.37-0.61,1.74-1.35c0.36-0.74,0.3-1.64-0.18-2.68c-0.8-1.72-1.99-3.04-3.55-3.93
	c-1.47-0.84-3.08-1.39-4.78-1.62c-2.74-0.4-5.47-0.2-8.09,0.6c-2.59,0.79-4.97,2.03-7.07,3.68c-2.1,1.66-3.88,3.68-5.28,6.01
	c-0.15,0.25-0.27,0.51-0.41,0.77c-0.9,1.36-1.8,2.81-2.69,4.32c-0.93,1.58-1.87,3.19-2.82,4.83c-1.26,2.16-2.65,4.42-4.12,6.71
	c-1.47,2.28-3.01,4.51-4.6,6.62c-1.59,2.12-3.2,4.14-4.79,6c-1.57,1.84-3.11,3.42-4.59,4.71c-1.44,1.25-2.81,2.2-4.07,2.81
	c-0.77,0.38-1.47,0.56-2.08,0.56c-0.25,0-0.49-0.03-0.73-0.1c-1.2-0.32-1.96-1.15-2.39-2.59c-0.5-1.68-0.68-3.74-0.54-6.14
	c0.14-2.48,0.53-5.21,1.15-8.12c0.63-2.95,1.36-5.82,2.18-8.53c0.81-2.72,1.63-5.21,2.43-7.41c0.76-2.11,1.39-3.7,1.86-4.72
	c1.34-1.79,2.79-3.74,4.34-5.85c1.59-2.17,3.2-4.45,4.79-6.78c1.6-2.35,3.2-4.78,4.73-7.23c1.54-2.46,2.95-4.9,4.19-7.27
	c1.25-2.38,2.34-4.71,3.24-6.91c0.91-2.25,1.55-4.36,1.89-6.28c0.42-2.3,0.34-4.07-0.23-5.38c-0.6-1.4-1.54-2.3-2.78-2.7
	c-1.16-0.36-2.46-0.29-3.83,0.24c-1.3,0.49-2.53,1.33-3.69,2.51c-1.28,1.35-2.61,3.12-3.94,5.25c-1.31,2.11-2.66,4.53-3.99,7.22
	c-1.33,2.69-2.65,5.65-3.93,8.81c-1.29,3.17-2.54,6.51-3.73,9.93c-1.2,3.43-2.36,6.98-3.45,10.54l-4.89,18.27
	c-0.51,2.31-0.93,4.63-1.24,6.89c-0.33,2.43-0.54,4.77-0.6,6.96c-0.07,2.26,0.12,4.31,0.56,6.11c0.46,1.88,1.24,3.44,2.33,4.65
	c1.14,1.26,2.69,2.03,4.61,2.28c0.26,0.03,0.53,0.04,0.8,0.04c1.86,0,3.95-0.71,6.23-2.12c2.48-1.53,5.06-3.63,7.69-6.24
	c2.61-2.59,5.19-5.57,7.66-8.86c2.47-3.28,4.71-6.64,6.66-9.97l0.71-1.2c0.45,1.15,1.2,2.02,2.25,2.56c1.35,0.72,2.8,0.87,4.23,0.46
	c1.3-0.37,2.59-1.04,3.83-1.98c1.18-0.9,2.35-1.99,3.47-3.23c1.09-1.21,2.11-2.44,3.03-3.63c0.27-0.35,0.53-0.69,0.78-1.01
	c0,0.01,0,0.01,0,0.02c-0.14,1.8,0.11,3.44,0.74,4.89c0.64,1.47,1.67,2.71,3.08,3.69c1.39,0.97,3.13,1.55,5.14,1.73
	c0.69,0.08,1.38,0.11,2.08,0.11c1.73,0,3.51-0.24,5.28-0.71c2.44-0.65,4.84-1.59,7.13-2.8c2.15-1.13,4.17-2.48,6.04-4
	c-0.32,1.82-0.53,3.46-0.59,4.89c-0.05,0.55-0.07,1.06-0.07,1.52c0,0.69,0.07,1.31,0.2,1.86c0.19,0.8,0.72,1.41,1.41,1.68
	c0.5,0.25,1.08,0.37,1.73,0.37c0.1,0,0.34-0.01,0.72-0.04c0.58-0.03,1.1-0.23,1.46-0.54c0.31-0.2,0.58-0.56,0.96-1.28
	c0.27-0.51,0.56-1.1,0.88-1.75c3.61-7.51,8.3-13.69,13.93-18.35c0.44-0.35,0.81-0.63,1.12-0.86c-0.32,0.84-0.82,2.05-1.61,3.81
	c-0.88,2.07-1.52,3.68-1.9,4.77c-0.13,0.39-1.06,2.04-1.81,3.37c-1.77,3.16-2.34,4.24-2.42,4.75c-0.06,0.3-0.09,0.54-0.09,0.75
	c0,0.17,0.02,0.35,0.06,0.51c0.07,0.35,0.28,0.69,0.74,1.13c0.77,0.64,1.71,0.97,2.81,0.97h0.2c1.02,0,1.88-0.31,2.6-0.96
	c0.25-0.24,0.5-0.59,0.81-1.1c0.24-0.42,0.5-0.87,0.78-1.36c2.32-4.27,9.43-13.59,14.49-17.72c1.36-1.09,2.7-2.04,3.97-2.8
	c0.7-0.42,1.31-0.77,1.82-1.03c-0.18,0.68-0.56,1.71-1.34,3.26c-0.87,1.75-3.65,6.95-5.87,11.13c-1.42,2.67-2.67,5.01-3.2,6.03
	c-1.74,3.35-2.59,5.98-2.69,8.33c0,4.88,2.73,7.75,5.39,8.43c0.53,0.16,1.1,0.24,1.69,0.24h0.04l0.04,0
	c5.78-0.49,12.26-8.32,17.09-15.6c0.47,0.91,1.14,1.62,2.04,2.07c1.35,0.72,2.8,0.88,4.24,0.46c1.3-0.37,2.59-1.04,3.83-1.98
	c1.19-0.9,2.35-1.99,3.47-3.23c1.08-1.21,2.1-2.43,3.02-3.63c0.27-0.35,0.53-0.69,0.78-1.02c0,0.01,0,0.02,0,0.02
	c-0.14,1.8,0.11,3.44,0.74,4.89c0.64,1.47,1.67,2.71,3.08,3.69c1.39,0.97,3.12,1.55,5.14,1.73c0.68,0.08,1.38,0.11,2.08,0.11
	c1.73,0,3.5-0.24,5.29-0.71c2.44-0.65,4.84-1.59,7.13-2.8c2.29-1.21,4.45-2.66,6.41-4.29c1.52-1.26,2.88-2.56,4.06-3.84
	c0.15,0.09,0.29,0.2,0.45,0.28c0.85,0.45,1.77,0.77,2.74,0.96c0.23,0.04,0.46,0.08,0.69,0.11c-0.3,0.53-0.6,1.1-0.88,1.7
	c-0.63,1.35-1.12,2.78-1.44,4.24c-0.33,1.49-0.44,3.01-0.33,4.49c0.11,1.58,0.63,3.04,1.56,4.39c1.18,1.54,2.67,2.54,4.41,2.98
	c0.98,0.25,1.98,0.38,2.96,0.38c0.66,0,1.32-0.06,1.98-0.17c1.76-0.31,3.55-0.94,5.33-1.87c1.75-0.91,3.47-2.02,5.11-3.29
	c1.63-1.25,3.23-2.63,4.76-4.08c0.84-0.79,1.64-1.59,2.42-2.38c-0.47,2.18-0.87,4.35-1.16,6.46c-0.33,2.42-0.53,4.74-0.6,6.91
	c-0.06,2.21,0.12,4.21,0.55,5.95c0.43,1.79,1.17,3.27,2.2,4.41c1.05,1.16,2.49,1.87,4.27,2.1c0.24,0.03,0.49,0.04,0.75,0.04
	c1.75,0,3.75-0.69,5.95-2.04c2.44-1.51,5-3.59,7.59-6.17c2.59-2.58,5.15-5.54,7.61-8.8c2.46-3.26,4.69-6.6,6.63-9.92l3.16-5.33
	c1.04-1.76,2.08-3.44,3.07-4.98c0.6-0.85,0.92-1.59,0.97-2.27c0.05-0.75-0.12-1.3-0.51-1.64c-0.41-0.34-0.96-0.39-1.61-0.12
	c-0.57,0.24-1.1,0.77-1.61,1.62c-0.94,1.42-1.9,2.94-2.84,4.54c-0.93,1.58-1.87,3.19-2.82,4.83c-1.27,2.17-2.66,4.43-4.14,6.73
	c-1.47,2.29-3.03,4.53-4.62,6.65c-1.6,2.13-3.22,4.17-4.81,6.03c-1.58,1.86-3.14,3.46-4.65,4.77c-1.48,1.28-2.89,2.25-4.19,2.89
	c-1.21,0.59-2.26,0.76-3.19,0.5c-1.38-0.37-2.29-1.34-2.77-2.97c-0.51-1.73-0.71-3.86-0.57-6.34c0.14-2.5,0.53-5.26,1.16-8.21
	c0.64-2.97,1.38-5.85,2.19-8.57c0.71-2.37,1.42-4.55,2.11-6.53c0.46-0.61,0.72-1.17,0.8-1.71c0.03-0.24,0.02-0.45,0-0.65
	c0.16-0.53,0.3-1.03,0.43-1.49c0.23-0.83,0.41-1.49,0.67-2.05l2.47-7.93c1.43-4.21,3.04-8.44,4.78-12.58
	c1.23-2.92,2.54-5.63,3.89-8.12l4.93-1.07l0.1-0.06c0.16-0.05,0.66-0.18,2.15-0.49c1.51-0.31,3.27-0.66,5.27-1.02
	c2.06-0.38,3.84-0.68,5.46-0.91c3.26-0.51,6.39-0.8,9.3-0.86c2.81-0.07,4.96,0.11,6.24,0.45c1.49,0.49,2.23,1.36,2.39,2.76
	c0.11,1.57,1.04,2.25,1.91,2.39c0.25,0.04,0.5,0.08,0.85,0.07c1.09-0.02,2.03-0.55,2.66-1.5c0.32-0.48,0.51-1.01,0.57-1.56
	C376.79,179.11,376.15,177.77,374.71,176.4 M109.03,205.06c1.23-4.41,2.67-8.86,4.28-13.24c1.61-4.38,3.43-8.38,5.42-11.88
	c1.4-2.46,2.66-4.36,3.72-5.65c1.51-1.83,2.18-2.08,2.64-2.08c0.3,0.01,0.54,0.13,0.71,0.34c0.32,0.41,0.35,1.11,0.1,2.33
	c-0.28,1.37-1.03,3.4-2.28,6.19c-0.86,1.94-1.84,3.99-2.93,6.08c-1.05,2.02-2.19,4.14-3.38,6.28c-1.18,2.11-2.4,4.21-3.65,6.25
	c-1.2,1.97-2.43,3.93-3.65,5.83l-1.96,3.06L109.03,205.06z M156.63,209.46c-0.76-0.23-1.63-0.2-2.58,0.1
	c-0.9,0.28-1.8,0.84-2.68,1.7c-0.21,0.21-0.65,0.68-1.32,1.41c-0.66,0.71-1.43,1.53-2.31,2.45l-2.79,2.9
	c-0.95,0.99-1.86,1.87-2.7,2.63c-0.73,0.65-1.37,1.17-1.93,1.56c0.02-0.41,0.09-0.85,0.18-1.3c0.11-0.51,0.25-1,0.42-1.46
	c0.18-0.49,0.33-0.87,0.45-1.17c0.54-1.34,1.29-2.69,2.23-3.99c0.94-1.32,1.99-2.5,3.12-3.51c1.11-1,2.29-1.79,3.51-2.35
	c0.95-0.44,1.89-0.66,2.79-0.66c0.19,0,0.37,0.01,0.57,0.03c0.82,0.07,1.57,0.33,2.29,0.81c0.39,0.25,0.75,0.58,1.08,0.99
	C156.86,209.54,156.74,209.5,156.63,209.46z M256.83,209.46c-0.76-0.23-1.63-0.2-2.58,0.1c-0.9,0.28-1.8,0.84-2.68,1.7
	c-0.21,0.21-0.65,0.68-1.32,1.41c-0.66,0.71-1.43,1.53-2.31,2.45l-2.79,2.9c-0.94,0.98-1.85,1.87-2.7,2.63
	c-0.72,0.65-1.37,1.17-1.92,1.56c0.02-0.43,0.09-0.86,0.18-1.3c0.12-0.53,0.25-1.01,0.42-1.46c0.18-0.49,0.33-0.87,0.45-1.17
	c0.54-1.34,1.29-2.68,2.23-3.99c0.95-1.33,1.99-2.5,3.12-3.51c1.11-1,2.29-1.79,3.51-2.35c0.95-0.44,1.89-0.66,2.79-0.66
	c0.19,0,0.37,0.01,0.57,0.03c0.82,0.07,1.57,0.33,2.29,0.8c0.39,0.26,0.75,0.59,1.08,0.99C257.06,209.53,256.95,209.5,256.83,209.46
	z"/>
<g>
	<path class="st1" d="M149.91,191h-2.23l-4.08-11.46h2.54l2.16,6.63c0.21,0.64,0.44,1.47,0.54,1.88c0.1-0.42,0.31-1.21,0.52-1.88
		l2.11-6.63h2.51L149.91,191"/>
	<rect x="162.82" y="179.54" class="st1" width="2.29" height="11.46"/>
	<polyline class="st1" points="174.77,191 174.77,179.54 177.06,179.54 177.06,188.74 182.8,188.74 182.8,191 174.77,191 	"/>
	<polyline class="st1" points="191.46,191 191.46,179.54 193.75,179.54 193.75,188.74 199.49,188.74 199.49,191 191.46,191 	"/>
	<polyline class="st1" points="208.15,191 208.15,179.54 216.1,179.54 216.1,181.78 210.44,181.78 210.44,183.76 213.73,183.76 
		213.73,185.99 210.44,185.99 210.44,188.75 216.35,188.75 216.35,191 208.15,191 	"/>
	<path class="st1" d="M240.04,191h-3.42v-11.46h3.59c3.27,0,5.7,1.54,5.7,5.73C245.9,189.29,242.99,191,240.04,191 M240.12,181.76
		h-1.21v7.01h1.13c2.4,0,3.5-1.41,3.5-3.5C243.54,182.92,242.55,181.76,240.12,181.76z"/>
	<polyline class="st1" points="254.73,191 254.73,179.54 262.69,179.54 262.69,181.78 257.03,181.78 257.03,183.76 260.32,183.76 
		260.32,185.99 257.03,185.99 257.03,188.75 262.94,188.75 262.94,191 254.73,191 	"/>
	<path class="st1" d="M245.35,150.36l-4.67-2.22h-7.17l-1.87-8.94h-3.83l-1.87,8.94h-29.58l-0.01-1.44c0.4-0.11,0.69-0.2,0.88-0.28
		c-1.33-0.2-6.72-0.97-10.57-0.97c-4.41,0-10.27,1.01-10.32,1.02l-0.5,0.09l1.73-2.45c-0.06,0.02-0.12,0.05-0.16,0.1
		c-0.08,0.14-0.16-0.02-0.18-0.13c-0.02-0.11-0.18,0.02-0.33-0.02c-0.15-0.04-0.24-0.23-0.17-0.24c0.07,0,0.01-0.22-0.03-0.31
		c-0.04-0.09,0.1-0.14,0.14-0.11c0.04,0.03,0.12-0.18,0.08-0.24c-0.04-0.06,0.13-0.09,0.16-0.03c0.03,0.05-0.04-0.33-0.13-0.47
		c-0.09-0.13,0.05-0.18,0.08-0.08c0.03,0.1,0.03-0.09,0.12-0.06c0.08,0.04,0.18-0.42,0.15-0.53c-0.03-0.11-0.37-0.06-0.42,0.07
		c-0.05,0.13-0.34,0.07-0.45,0.13c-0.11,0.06-0.25-0.27-0.33-0.34c-0.09-0.07-0.25-0.03-0.3,0c-0.05,0.02-0.26-0.17-0.16-0.3
		c0.1-0.13,0.32-0.21,0.35-0.18c0.03,0.03,0.22-0.08,0.24-0.18c0.02-0.09,0.11-0.43,0.07-0.48c-0.04-0.05,0.16,0.03,0.23,0.09
		c0.08,0.06,0.34-0.14,0.45-0.11c0.11,0.03,0-0.16-0.05-0.27c-0.05-0.11-0.27-0.23-0.31-0.2c-0.03,0.03-0.35-0.6-0.49-0.82
		c-0.14-0.22-0.49-0.58-0.61-0.61c-0.12-0.04-0.26,0.19-0.31,0.26c-0.04,0.07-0.26-0.31-0.22-0.54c0.04-0.23-0.23-0.34-0.26-0.23
		c-0.03,0.12-0.14-0.01-0.19-0.07c-0.05-0.06,0.15-0.3,0.23-0.38c0.07-0.08,0.14-0.43,0.09-0.49c-0.04-0.06-0.16,0.29-0.37,0.25
		c-0.21-0.04-0.53-0.28-0.56-0.39c-0.03-0.11-0.44-0.07-0.58-0.03c-0.14,0.03-0.35,0.44-0.44,0.53c-0.09,0.09-0.3,0.09-0.33,0.11
		c-0.03,0.03-0.03-0.07-0.02-0.11s-0.33-0.04-0.37,0.07c-0.04,0.11-0.28,0.14-0.31,0.06c-0.02-0.08-0.3,0.01-0.35,0.12
		c-0.05,0.11-0.35-0.1-0.4-0.26c-0.05-0.16,0.22-0.37,0.27-0.47c0.05-0.09-0.01-0.26-0.03-0.31c-0.02-0.05,0.07-0.09,0.11-0.09
		c0.04,0-0.24-0.49-0.35-0.69c-0.11-0.19-0.34,0.11-0.29,0.31c0.05,0.2-0.15,0.46-0.28,0.45c-0.14-0.02-0.33-0.2-0.34-0.28
		c-0.01-0.08-0.15-0.08-0.2-0.16c-0.06-0.09-0.39-0.14-0.41-0.04c-0.02,0.1-0.05,0.1-0.07,0.08c-0.02-0.01,0.2-0.21,0.14-0.39
		c-0.06-0.18-0.28-0.33-0.32-0.31c-0.04,0.02-0.18-0.41-0.28-0.51c-0.1-0.11-0.02-0.56-0.08-0.72c-0.06-0.15-0.24-0.28-0.3-0.28
		s-0.48-0.42-0.8-0.27c-0.33,0.15-0.92,0.15-1.02,0.25c-0.11,0.11-0.19,0.01-0.11,0.01c0.08,0-0.08-0.63-0.04-0.81
		c0.04-0.18,0.41-0.31,0.47-0.46c0.06-0.15,0.09-0.84-0.02-0.94c-0.11-0.11-0.45-0.14-0.56-0.14c-0.12,0-0.38-0.26-0.32-0.43
		c0.06-0.17,0.18-0.17,0.17-0.08c0,0.09,0.27,0.03,0.21-0.13c-0.06-0.16,0.07-0.29,0.11-0.26c0.04,0.02,0-0.34-0.01-0.49
		c-0.02-0.15,0.06-0.26,0.09-0.25c0.03,0.01,0.04-0.19,0.02-0.25c-0.02-0.07-0.34,0-0.41,0.1c-0.07,0.09-0.53,0-0.65,0.04
		c-0.12,0.04-0.13-0.34-0.18-0.46c-0.05-0.11-0.48,0.07-0.45,0.3c0.04,0.22-0.14,0.1-0.23,0.13c-0.09,0.03-0.3,0.57-0.39,0.73
		c-0.09,0.16,0.02,0.27,0.06,0.3c0.04,0.03,0.16-0.1,0.2-0.15c0.05-0.05,0.24,0.1,0.35,0.11c0.11,0.02,0.16,0.39,0.07,0.44
		c-0.09,0.06-0.46,0.02-0.53-0.05c-0.08-0.07-0.31,0.1-0.31,0.18c0,0.08-0.17-0.07-0.19-0.2c-0.02-0.13-0.61-0.27-0.71-0.4
		c-0.1-0.13-0.22-0.68-0.21-0.81c0.02-0.13-0.19-0.23-0.27-0.23c-0.08,0-0.39,0.32-0.6,0.17c-0.22-0.16-0.66-0.33-0.73-0.33
		c-0.07,0-0.1,0.53-0.05,0.69c0.05,0.16,0.29,0.38,0.35,0.3c0.05-0.07,0.12,0.31,0.23,0.38c0.11,0.07,0.11,0.25,0.1,0.33
		c-0.01,0.07,0.18,0.17,0.21,0.11c0.03-0.05-0.05,0.31-0.01,0.46c0.04,0.14-0.04,0.23-0.08,0.22c-0.04-0.01-0.05,0.31-0.12,0.36
		c-0.07,0.04-0.02,0.42,0.03,0.54c0.04,0.13-0.15,0.31-0.19,0.38c-0.04,0.07-0.01-0.08-0.03-0.21c-0.02-0.13-0.33-0.19-0.37-0.1
		c-0.04,0.09-0.13-0.02-0.15-0.08c-0.02-0.06,0.06-0.29,0.13-0.32c0.06-0.04-0.01-0.52-0.21-0.55c-0.2-0.02-0.41-0.16-0.41-0.22
		c0-0.06-0.38-0.06-0.49-0.1c-0.11-0.04-0.22-0.21-0.21-0.24c0.01-0.03-0.02,0-0.06,0.06c-0.04,0.07,0.05,0.36,0.08,0.37
		c0.03,0.02,0.03,0.14,0.02,0.18c-0.01,0.04-0.13,0.04-0.15,0.01c-0.02-0.03-0.12,0.1-0.09,0.17c0.03,0.07-0.05,0.13-0.07,0.15
		c-0.02,0.01-0.56-0.12-0.64-0.29c-0.08-0.17-0.34-0.1-0.41-0.14c-0.07-0.03,0,0.38-0.07,0.49c-0.07,0.11,0.17,0.28,0.23,0.29
		c0.06,0.01,0.06,0.97,0.3,1.21c0.23,0.23,0.19,0.62,0.15,0.75c-0.04,0.13-0.17,0.2-0.19,0.18c-0.02-0.03-0.13,0.47-0.22,0.61
		c-0.09,0.14-0.29,0.14-0.35,0.16c-0.05,0.02-0.17-0.09-0.18-0.14c-0.02-0.06-0.66-0.23-0.74-0.43c-0.08-0.2-0.26-0.2-0.3-0.13
		c-0.04,0.07-0.25-0.03-0.31-0.11c-0.06-0.07-0.21,0-0.25,0.04c-0.04,0.04-0.24-0.05-0.3-0.09c-0.07-0.04,0.02-0.49-0.07-0.61
		c-0.09-0.11-0.38-0.24-0.41-0.32c-0.02-0.07,0.3-0.11,0.42-0.13c0.12-0.03,0.42,0.02,0.45,0.1c0.03,0.08-0.02-0.45-0.18-0.55
		c-0.15-0.1-0.29-0.75-0.35-0.91c-0.06-0.17-0.02-0.29,0.01-0.29c0.03,0,0.05-0.27,0.01-0.34c-0.04-0.07-0.23-0.12-0.27-0.14
		c-0.04-0.02,0.05-0.29,0.07-0.42c0.02-0.14-0.29-0.1-0.38-0.01c-0.09,0.09-0.43,0.04-0.52,0.05c-0.08,0-0.16,0.18-0.14,0.22
		c0.02,0.04-0.17,0.09-0.24,0.1c-0.07,0.01-0.07,0.47,0,0.6c0.06,0.13,0,0.18-0.07,0.18c-0.06,0-0.16,0.32-0.12,0.41
		c0.04,0.09-0.03,0.06-0.06,0.02c-0.02-0.05-0.35,0.03-0.46-0.01c-0.11-0.04-0.26,0.04-0.26,0.1c0,0.06,0.3,0.21,0.43,0.15
		c0.13-0.05,0.21,0.21,0.33,0.2c0.11-0.01,0.02,0.14-0.06,0.19c-0.08,0.05,0.1,0.35,0.18,0.46c0.08,0.11,0.05,0.33,0,0.37
		c-0.05,0.04-0.37-0.07-0.45-0.14c-0.08-0.08-0.16,0.12-0.09,0.15c0.06,0.03-0.03,0.29,0,0.37c0.03,0.08-0.06,0.27-0.12,0.31
		c-0.06,0.04-0.28-0.09-0.32-0.18c-0.04-0.09,0.07-0.26,0.12-0.24c0.05,0.02-0.11-0.46-0.3-0.53c-0.19-0.07-0.18,0.29-0.1,0.42
		c0.08,0.14-0.01,0.41-0.01,0.49c0,0.09-0.3-0.11-0.46-0.18c-0.16-0.07-0.28,0.4-0.16,0.48c0.12,0.08-0.29,0.53-0.53,0.62
		c-0.24,0.09-0.08,0.09-0.01,0.07c0.07-0.02,0.14,0.23,0.12,0.3c-0.02,0.07-0.14,0.11-0.16,0.1c-0.03-0.01-0.07,0.31-0.14,0.38
		c-0.07,0.06-0.08,0.26-0.04,0.29c0.04,0.03,0.25,0.09,0.29,0.06c0.04-0.03,0.02,0.11-0.06,0.11c-0.08,0-0.2,0.21-0.18,0.28
		c0.02,0.07-0.27-0.01-0.43,0.02c-0.15,0.03-0.55-0.15-0.64-0.24c-0.09-0.09-0.23,0.01-0.18,0.09c0.05,0.08-0.04,0.21-0.12,0.21
		c-0.08,0-0.23,0.34-0.16,0.44c0.07,0.1-0.23,0.36-0.4,0.32c-0.17-0.04-0.52,0.38-0.65,0.5c-0.13,0.13-0.34,0.09-0.4,0.05
		c-0.06-0.03-0.71,0.21-0.88,0.38c-0.17,0.17-0.08,0.41,0,0.45c0.08,0.05,0.06,0.26,0.07,0.36c0.01,0.1,0.23,0.29,0.26,0.43
		c0.02,0.15-0.45,0.28-0.62,0.42c-0.17,0.14-0.27,0.67-0.34,0.82c-0.07,0.16-0.37,0.14-0.47,0.09c-0.1-0.05,0,0.47,0.24,0.62
		c0.24,0.15,0.59,0.44,0.66,0.5c0.07,0.06,0.33-0.11,0.52-0.11c0.19,0,0.31,0.08,0.28,0.09c-0.03,0.01,0.41,0.4,0.55,0.59
		c0.14,0.19,0.6,0.28,0.76,0.36c0.16,0.08,0.02,0.22,0.01,0.34c-0.01,0.12-0.12,0.22-0.17,0.22c-0.04,0-0.08-0.17-0.08-0.23
		c0-0.06-0.44,0.05-0.44,0.28c-0.01,0.23-0.2,0.35-0.23,0.29c-0.03-0.06-0.31-0.09-0.36-0.04c-0.05,0.05-0.11-0.14-0.13-0.22
		c-0.01-0.08-0.14,0.04-0.18,0.12c-0.04,0.08-0.41-0.02-0.59-0.02c-0.18-0.01-0.28-0.35-0.22-0.43c0.06-0.09,0.03-0.29-0.06-0.29
		c-0.09,0.01-0.21,0.2-0.26,0.23c-0.05,0.04-0.84-0.06-1.03-0.13c-0.2-0.08-0.39,0.07-0.44,0.12c-0.05,0.04-0.49-0.29-0.55-0.52
		c-0.06-0.23,0.08-0.78,0.11-1.02c0.04-0.24-0.19-0.25-0.24-0.14c-0.05,0.11-0.42,0.21-0.45,0.32c-0.03,0.1-0.24-0.07-0.29-0.18
		c-0.05-0.12-0.46-0.1-0.53-0.2c-0.07-0.1-0.3,0.01-0.32,0.12c-0.02,0.1-0.11,0.11-0.13,0.09c-0.01,0.05-0.07,0.28-0.02,0.37
		c0.06,0.11,0.31,0.21,0.34,0.17c0.03-0.04,0.14,0.19,0.07,0.3c-0.07,0.11-0.44,0.1-0.55,0.28c-0.11,0.18,0.17,0.27,0.62,0.22
		l0.75,0.68c0.45,0.06,0.66,0.27,0.58,0.29c-0.09,0.03-0.34-0.14-0.44-0.2c-0.1-0.05-0.15,0.21-0.06,0.25
		c0.09,0.03,0.08,0.16,0.03,0.19c-0.05,0.02-0.18,0-0.21-0.02c-0.03-0.03,0.05-0.31-0.01-0.42c-0.06-0.11-0.6-0.13-0.71-0.08
		c-0.11,0.06-0.17,0.53-0.08,0.69c0.09,0.16,0.45,0.33,0.53,0.38c0.08,0.04-0.23,0.26-0.26,0.44c-0.03,0.18-0.58,0.35-0.6,0.67
		c-0.01,0.32,0.1,0.57,0.12,0.53c0.02-0.04,0.14,0.41,0.1,0.63c-0.04,0.22,0.04,0.59,0.11,0.65c0.06,0.05,0.17-0.07,0.25-0.07
		c0.08,0,0.07,0.56,0.12,0.78c0.05,0.23-0.02,0.44-0.07,0.45c-0.04,0.01-0.28-0.05-0.31-0.13c-0.03-0.08-0.51,0.29-0.75,0.26
		c-0.24-0.03-0.42,0.18-0.36,0.22c0.06,0.04-0.09,0.26-0.08,0.42c0.01,0.16-0.48,0.54-0.69,0.62c-0.21,0.07-0.29,0.54-0.2,0.64
		c0.09,0.1,0.6,0.06,0.69-0.06c0.09-0.12,0.16-0.36,0.16-0.41c0-0.05,0.21-0.14,0.3-0.1c0.08,0.03,0.11,0.1,0.1,0.13
		c0,0.03-0.15,0-0.2-0.01c-0.05,0,0.02,0.6,0.12,0.78c0.1,0.17,0.06,0.5,0.05,0.59c-0.02,0.1,0.42,0.33,0.59,0.42
		c0.16,0.09,0.7,0.04,0.75-0.1c0.06-0.14,0.32-0.2,0.34-0.27c0.02-0.06,0.15,0.07,0.27-0.02c0.12-0.08,0.33-0.03,0.37,0.01
		c0.04,0.04,0.12-0.12,0.19-0.08c0.07,0.05,0.31-0.34,0.39-0.51c0.07-0.18,0.5-0.02,0.65-0.13c0.15-0.1-0.07,0.1-0.03,0.24
		c0.04,0.14,0,0.14-0.01,0.08c-0.01-0.06-0.59,0.22-0.59,0.44c0,0.2,0.15,0.62,0.22,0.69c0.07,0.08,0.25-0.04,0.23-0.17
		c-0.02-0.11,0.28,0.26,0.31,0.48c0.02,0.22,0,0.49-0.03,0.53c-0.02,0.03-0.29-0.06-0.36-0.06c-0.07,0-0.09,0.54-0.1,0.67
		c-0.02,0.13,0.11,0.24,0.14,0.22c0.03-0.02,0.1,0.34,0.21,0.33c0.11-0.01,0.14,0.67,0.02,0.84c-0.12,0.16-0.46,0.29-0.54,0.27
		c-0.07-0.02-0.2,0.51-0.12,0.68c0.09,0.17,0.45,0.06,0.55-0.05c0.1-0.12,0.27-0.14,0.3-0.1c0.03,0.04-0.13,0.39-0.15,0.59
		c-0.02,0.19,0.18,0.16,0.44-0.05c0,0,0,0,0.27,0c0.05,0,0.05,0,0.05,0c0.22,0.16,0.37,0.67,0.32,0.8c-0.05,0.13,0.02,0.15,0.04,0.1
		c0.02-0.05,0.15,0.04,0.17,0.12c0.02,0.08,0.26-0.11,0.32-0.23c0.06-0.12,0.12-0.47,0.1-0.54c-0.02-0.07,0.08-0.31,0.14-0.37
		c0.06-0.06,0.6-0.03,0.73-0.09c0.13-0.07,0.39-0.29,0.46-0.35c0.06-0.06,0.29,0.05,0.27,0.17c-0.02,0.12,0.09,0.22,0.1,0.18
		c0.02-0.03,0.13,0,0.16,0.04c0.02,0.04,0.03,0.3-0.01,0.36c-0.03,0.06,0.17,0.09,0.21,0.04c0.04-0.06,0.22,0.02,0.31,0.04
		c0.09,0.02,0.17-0.42,0.29-0.49c0.12-0.06,0.2-0.63,0.36-0.71c0.17-0.08,0.5,0.45,0.43,0.71c-0.07,0.25-0.04,0.62,0.01,0.67
		c0.05,0.04-0.03,0.31-0.05,0.42c-0.02,0.1,0.37,0.21,0.47,0.39c0.1,0.17,0.43,0.27,0.46,0.18c0.03-0.08,0.33,0.28,0.41,0.43
		c0.09,0.15,0.45,0.19,0.55,0.14c0.1-0.05,0.31,0.13,0.38,0.2c0.07,0.06,0.33,0.02,0.4,0.01c0.07-0.01,0.23-0.16,0.25-0.23
		c0.03-0.07,0.16-0.02,0.2,0.02c0.04,0.04,0.11-0.07,0.11-0.14c0.01-0.07,0.16,0.03,0.25,0.06c0.09,0.02,0.48-0.35,0.65-0.46
		c0.17-0.1,0.43-0.06,0.49-0.02c0.06,0.04,0.52-0.15,0.58-0.34c0.05-0.19-0.16-0.69-0.23-0.87c-0.07-0.18,0.18-0.13,0.57,0.12
		c0,0,1.02,0.65,1.58,1.68c0.36,0.65,0.9,0.86,0.97,1.72c0.15,1.95,0.07,6.06,0.07,6.06c-0.01,0.46-0.39,0.84-0.84,0.85
		c0,0-0.99,0.31-0.57,1.08c3.76-0.08,3.76-0.08,3.76-0.08v0.04h15.93v-5.74l1.36-0.02v5.94c0,0,2.11,0.41,5.95,0.41
		c2.81,0,5.96-0.59,5.96-0.59h4.1v-6.19h2.25v6.19h14.87v-6.19h2.26v6.19h13.21v-6.19h2.25v6.19h15.25v-8.92h-54.51v-0.47h54.51
		v-6.1h-6.88v4.66h-2.43v-4.66h-5.84v4.66h-2.43v-4.66h-6.15v4.66h-2.43v-4.66H215v4.66h-2.42v-4.66h-4.93v4.66h-2.43v-4.66h-6.87
		v4.66h-2.43v-4.66h-4.34v-0.46h4.34v-0.15c0,0,0.19-0.89,1.21-0.89c1.03,0,1.22,0.89,1.22,0.89v0.15h6.87v-0.98h2.43v0.98h4.93
		v-0.98H215v0.98h4.92v-0.98h2.43v0.98h6.15v-0.15c0,0,0.19-0.89,1.21-0.89c1.03,0,1.22,0.89,1.22,0.89v0.15h5.84v-0.98h2.43v0.98
		h6.88v-0.03h0.63l0.04-0.74L245.35,150.36 M146.13,149.92c-0.02,0.33-0.6,0.74-0.6,0.43c0-0.31,0-0.38,0.02-0.33
		c0.02,0.05,0.34,0,0.41-0.09c0.07-0.08,0.18-0.41,0.22-0.48c0.04-0.07,0.07-0.38,0.05-0.46c-0.02-0.07,0.02-0.11,0.09-0.07
		c0.07,0.03,0.46,0.16,0.45,0.25C146.78,149.26,146.15,149.59,146.13,149.92z M156.09,158.21c-0.13,0.04-0.27,0.53-0.32,0.63
		c-0.05,0.1-0.35,0.15-0.41,0.1c-0.07-0.05-0.02-0.26,0-0.34c0.02-0.08-0.09-0.26-0.17-0.28c-0.07-0.02,0.37-0.28,0.5-0.44
		c0.12-0.16,0.16-0.35,0.08-0.42c-0.08-0.07,0.3-0.36,0.32-0.27c0.03,0.09,0.01,0.38-0.01,0.45c-0.03,0.06,0.01,0.22,0.09,0.2
		C156.25,157.84,156.22,158.18,156.09,158.21z M156.53,155.98c-0.02-0.06-0.22,0.01-0.26,0.09c-0.04,0.08-0.26-0.41-0.37-0.69
		c-0.11-0.27,0.38-0.42,0.49-0.16c0.12,0.26,0.25,0.47,0.29,0.48c0.05,0,0.09,0.22,0.09,0.26
		C156.77,156.01,156.55,156.04,156.53,155.98z M157.51,157.3c-0.04,0.22-0.43,0.29-0.5,0.16c-0.07-0.12,0.02-0.31,0.07-0.32
		c0.05-0.01,0.07-0.24,0-0.26c-0.07-0.02-0.01-0.1,0.04-0.12c0.06-0.02,0.13-0.22,0.1-0.25c-0.03-0.03,0.02-0.13,0.06-0.15
		c0.03-0.02,0.06-0.05,0.06-0.07c0-0.02,0.16,0.13,0.22,0.08C157.62,156.32,157.55,157.08,157.51,157.3z M159.62,159.22
		c-0.04,0.06-0.75-0.39-1.07-0.62c-0.32-0.23-0.56-0.5-0.53-0.59c0.03-0.1,0.5-0.09,0.62-0.04c0.13,0.05,0.35,0,0.43-0.01
		c0.08,0,0.21,0.31,0.29,0.38c0.07,0.07,0.13,0.5,0.21,0.55C159.65,158.93,159.66,159.16,159.62,159.22z M161.52,160.22
		c-0.01,0.16-0.13,0.18-0.26,0.04l-0.67-2.53c-0.08-0.15-0.15-0.28-0.15-0.29c0-0.01,0.34-0.07,0.44-0.07c0.1,0,0.27,0.12,0.39,0.27
		c0,0,0.21,0.27,0.24,0.6C161.59,158.97,161.52,160.22,161.52,160.22z M167.92,166.88h-1.6v-4.87h1.6V166.88z M171.79,166.88h-1.6
		v-4.87h1.6V166.88z M175.73,166.88h-1.6v-4.87h1.6V166.88z M177.42,160.77h-14.71v-0.47h14.71V160.77z M167.92,159.49h-1.6v-4.53
		h1.6V159.49z M171.79,159.49h-1.6v-4.53h1.6V159.49z M175.73,159.49h-1.6v-4.53h1.6V159.49z M177.42,154.19h-14.71v-0.46h14.71
		V154.19z M179.99,158.85h-1.36v-4.4l1.36-0.12V158.85z M179.99,152.01l-1.36,0.18v-3.97l1.36-0.26V152.01z M186.03,167.73h-2.19
		v-3.81h2.19V167.73z M186.03,158.85h-2.19v-4.52h2.19V158.85z M186.03,152.01h-2.19v-4.52h2.19V152.01z M236.87,163.5h2.25v4.35
		h-2.25V163.5z M220.02,163.5h2.25v4.35h-2.25V163.5z M205.31,163.5h2.25v4.35h-2.25V163.5z M200.25,151.84h-6.27l-0.33-0.43
		l3.51-1.65l3.46,1.65L200.25,151.84z M208.39,151.81h-3.91l-0.21-0.33l2.19-1.24l2.16,1.24L208.39,151.81z M215.73,151.81h-3.91
		l-0.21-0.33l2.19-1.24l2.16,1.24L215.73,151.81z M223.07,151.81h-3.91l-0.21-0.33l2.19-1.24l2.16,1.24L223.07,151.81z
		 M228.29,142.77c0-0.85,0.69-1.54,1.54-1.54s1.54,0.69,1.54,1.54v1.84h-3.08V142.77z M232.83,151.84h-6.27l-0.33-0.43l3.51-1.65
		l3.47,1.65L232.83,151.84z M239.93,151.81h-3.91l-0.2-0.33l2.19-1.24l2.16,1.24L239.93,151.81z"/>
</g>
<path class="st2" d="M103.84,216.83c-1.26-1.72-1.58-1.43-4.14,2.25c-2.62,3.77-5.68,7.73-9.11,11.78
	c-2.86,3.4-5.94,6.81-9.15,10.15c-3.19,3.32-6.52,6.44-9.91,9.27c-1.9,1.63-3.92,3.16-5.99,4.56c-2.07,1.4-4.2,2.65-6.32,3.71
	c-2.11,1.06-4.23,1.9-6.32,2.51c-1.78,0.52-3.53,0.82-5.21,0.91c-0.25,0.01-0.51,0.02-0.78,0.02c-1.49,0.04-2.96-0.13-4.36-0.51
	c-1.39-0.38-2.72-0.98-3.96-1.81c-1.24-0.83-2.41-1.94-3.45-3.31c-1.06-1.38-1.99-3.09-2.76-5.08c-1.51-3.76-2.35-7.95-2.52-12.43
	c-0.16-4.54,0.17-9.26,0.98-14.04c0.82-4.8,2.05-9.7,3.66-14.57c1.62-4.87,3.47-9.64,5.51-14.16c2.04-4.52,4.25-8.81,6.56-12.78
	c2.32-3.96,4.59-7.47,6.77-10.42c1.24-1.7,2.6-3.41,4.03-5.07c1.4-1.63,2.92-3.13,4.52-4.47c1.58-1.33,3.27-2.45,5.04-3.34
	c1.73-0.88,3.62-1.45,5.61-1.69c1.69-0.19,3.3-0.08,4.79,0.34c1.46,0.41,2.66,1.11,3.67,2.12c1,1.02,1.76,2.36,2.26,3.99
	c0.5,1.65,0.59,3.65,0.29,5.94c-0.21,1.39-0.55,2.78-1.01,4.14c-0.47,1.36-1.05,2.68-1.74,3.92c-0.69,1.24-1.46,2.37-2.28,3.35
	c-0.8,0.96-1.66,1.75-2.53,2.34l-0.14,0.11c-1.16,1.09-1.76,2.24-1.78,3.43c-0.03,1.55,0.66,2.42,1.25,2.88
	c0.85,0.66,1.96,0.84,3.28,0.54c1.25-0.29,2.49-1.25,3.78-2.93c0.68-0.87,1.32-2.01,1.91-3.4c0.57-1.34,1.09-2.84,1.56-4.46
	c0.47-1.62,0.87-3.34,1.2-5.12c0.33-1.78,0.58-3.55,0.75-5.28c0.27-3.17,0.07-5.94-0.58-8.23c-0.67-2.32-1.69-4.24-3.04-5.7
	c-1.37-1.47-3.01-2.52-4.89-3.12c-1.85-0.58-3.87-0.75-5.78-0.53c-2.46,0.25-4.82,0.9-7,1.94c-2.14,1.01-4.19,2.26-6.09,3.69
	c-1.9,1.44-3.68,3.04-5.28,4.78c-1.58,1.72-3.04,3.44-4.34,5.13c-1.75,2.3-3.67,5.08-5.69,8.27c-2.01,3.17-4.05,6.69-6.06,10.45
	c-1.99,3.73-3.98,7.75-5.89,11.94c-1.9,4.17-3.63,8.46-5.14,12.74c-1.51,4.27-2.77,8.6-3.77,12.87c-1,4.28-1.6,8.45-1.8,12.4
	c-0.2,3.97,0.05,7.74,0.75,11.23c0.71,3.54,2.06,6.71,4,9.41c2.46,3.52,5.45,6.04,8.88,7.48c3.31,1.39,6.95,1.99,10.82,1.8
	l0.29-0.02c2.3-0.11,4.65-0.49,6.97-1.12c2.31-0.63,4.61-1.45,6.86-2.44c2.24-0.99,4.45-2.18,6.55-3.53
	c2.1-1.35,4.09-2.83,5.85-4.35c3.77-2.93,7.45-6.28,10.94-9.94c3.49-3.66,6.85-7.5,10-11.42c3.04-3.76,5.89-7.51,8.48-11.15
	c0.07-0.1,1.74-3.51,1.82-3.61L103.84,216.83"/>
</svg>
