<svg width="808" height="739" viewBox="0 0 808 739" fill="none" xmlns="http://www.w3.org/2000/svg">
<g opacity="0.1">
<path d="M674.783 125.813L682.137 116.306L696.561 79.7495L682.137 75.4991L650.643 57.9718L647.226 64.4901L630.172 46.4672L676.09 24.4343L675.051 16.4291L667.177 13.9209H648.013L644.596 17.931L603.921 30.4419L544.35 41.9615L533.327 48.9604L517.58 51.9642L514.163 42.4571L482.149 62.4776L474.008 49.4711L468.496 53.9768L465.615 46.2119L465.079 44.71L458.781 42.9528L464.827 35.9539L450.12 23.6833L442.782 30.4419L435.16 19.9285L431.759 16.9247L426.767 18.9223L422.562 16.1738L419.413 15.1675L414.169 13.9209L410.752 16.4291L408.138 13.9209H389.242L365.873 20.6795L392.643 50.222L396.58 53.9768L397.902 56.2296L390.549 57.2209L397.902 68.2449L401.571 71.7443L404.989 99.5296L407.351 108.541L411.807 119.55L387.667 128.817L375.589 147.846C375.589 147.846 365.621 158.359 365.086 159.11C364.55 159.861 342.788 169.624 342.788 169.624L352.488 188.893L367.448 204.663L354.33 200.653L351.968 222.431L333.072 247.468L310.506 256.975H301.058L279.012 246.972L271.139 253.971L266.415 274.006L274.288 274.247L276.65 280.014L273.501 286.262L265.092 291.023V296.024L269.029 302.287L264.84 311.794L253.03 312.545L253.817 322.563L248.038 327.564L246.731 343.845L222.055 381.888L211.819 384.141L238.857 497.535L228.874 505.045V524.074H223.63L221.535 565.121L162.216 593.162C159.067 594.664 149.099 605.177 149.099 605.177C149.099 605.177 142.265 613.182 140.69 613.678C139.115 614.173 128.628 616.681 128.628 616.681L125.998 623.695L99.228 641.223L105.527 646.224L99.228 650.73L111.306 669.759C111.306 669.759 109.731 683.276 110.771 687.782C111.81 692.288 131.242 709.8 131.242 709.8H141.745L174.814 712.804L193.191 699.286L199.49 702.546L240.038 703.672V698.04L202.041 697.86L196.34 694.48L234.322 665.749L240.038 671.756L247.124 673.634L251.061 688.097L253.218 689.224L266.415 684.342L265.422 680.392H253.817L251.644 670.63L255.124 657.488L254.148 651.105L275.406 634.96L291.547 644.227V639.465L320.679 642.214L360.566 645.969V630.95L369.495 612.431C369.495 612.431 371.321 599.41 374.219 593.913C377.116 588.416 394.69 556.86 394.69 556.86L404.658 550.598L420.137 551.108L437.727 576.641L436.42 566.127H439.034L440.356 544.35L477.614 523.819L496.259 511.803L517.249 496.529L548.476 471.252L600.441 452.223L613.039 445.719L625.636 435.957L639.557 423.191H649.792L637.447 376.376L631.148 370.879L629.573 365.863L632.203 363.114L630.628 358.113L631.935 347.089L678.389 305.126L666.846 295.273V285.271L676.027 287.013C676.027 287.013 678.924 268.75 678.389 264.484C677.854 260.219 674.988 240.454 674.988 240.454L634.297 238.201L633.778 235.708L663.429 174.129L674.783 125.813Z" fill="black"/>
</g>
<path d="M688.168 138.579L695.522 129.072L709.962 92.5306L695.522 88.2652L664.027 70.753L660.61 77.2562L643.556 59.2334L689.49 37.2004L688.435 29.1952L680.562 26.687H661.398L657.996 30.6971L617.306 43.208L557.735 54.7276L546.712 61.7415L530.965 64.7454L527.548 55.2233L495.534 75.2587L487.393 62.2372L481.881 66.7429L479 58.978L478.48 57.4761L472.181 55.7339L478.212 48.72L463.52 36.4494L456.166 43.208L448.56 32.6946L445.143 29.6908L440.152 31.7034L435.963 28.9399L432.813 27.9486L427.554 26.687L424.153 29.1952L421.523 26.687H402.626L379.273 33.4456L406.043 62.9881L409.98 66.7429L411.287 68.9958L403.933 70.002L411.287 81.011L414.956 84.5105L418.373 112.296L420.735 121.307L425.192 132.331L401.052 141.583L388.974 160.612C388.974 160.612 379.006 171.125 378.486 171.876C377.966 172.627 356.173 182.39 356.173 182.39L365.888 201.659L380.848 217.429L367.715 213.434L365.353 235.212L346.457 260.234L323.891 269.756H314.443L292.397 259.738L284.523 266.752L279.799 286.772L287.673 287.028L290.035 292.78L286.885 299.043L278.492 303.789V308.805L282.429 315.053L278.225 324.575L266.414 325.326L267.202 335.329L261.422 340.345L260.115 356.611L235.44 394.654L225.204 396.907L252.242 510.301L242.274 517.811V536.84H237.015L234.92 577.887L175.601 605.928C172.452 607.43 162.484 617.943 162.484 617.943C162.484 617.943 155.665 625.948 154.091 626.459C152.516 626.969 142.013 629.463 142.013 629.463L139.383 636.462L112.613 653.989L118.912 658.99L112.613 663.496L124.691 682.525C124.691 682.525 123.116 696.042 124.171 700.548C125.226 705.054 144.642 722.581 144.642 722.581H155.13L188.199 725.585L206.575 712.068L212.874 715.312L253.423 716.438V710.806L215.441 710.626L209.725 707.246L247.723 678.515L253.423 684.523L260.509 686.4L264.446 700.863L266.619 701.99L279.799 697.109L278.823 693.159H267.202L265.044 683.396L268.587 670.254L267.595 663.871L288.854 647.726L304.995 656.993V652.232L334.127 654.995L374.014 658.75V643.731L382.943 625.197C382.943 625.197 384.785 612.191 387.667 606.679C390.548 601.167 408.138 569.627 408.138 569.627L418.106 563.379L433.601 563.874L451.174 589.407L449.867 578.893H452.497L453.804 557.116L491.078 536.585L509.706 524.569L530.697 509.31L561.939 484.018L613.905 465.004L626.502 458.485L639.1 448.723L653.005 435.957H663.24L650.91 389.157L644.611 383.645L643.037 378.644L645.651 375.881L644.076 370.879L645.399 359.87L691.852 317.817L680.294 308.054V298.037L689.49 299.794C689.49 299.794 692.372 281.516 691.852 277.265C691.333 273.015 688.435 253.235 688.435 253.235L647.761 250.982L647.225 248.474L676.893 186.896L688.168 138.579Z" fill="#47BFAD"/>
<path d="M688.168 138.579L695.522 129.072L709.962 92.5306L695.522 88.2652L664.027 70.753L660.61 77.2562L643.556 59.2334L689.49 37.2004L688.435 29.1952L680.562 26.687H661.398L657.996 30.6971L617.306 43.208L557.735 54.7276L546.712 61.7415L530.965 64.7454L527.548 55.2233L495.534 75.2587L487.393 62.2372L481.881 66.7429L479 58.978L478.48 57.4761L472.181 55.7339L478.212 48.72L463.52 36.4494L456.166 43.208L448.56 32.6946L445.143 29.6908L440.152 31.7034L435.963 28.9399L432.813 27.9486L427.554 26.687L424.153 29.1952L421.523 26.687H402.626L379.273 33.4456L406.043 62.9881L409.98 66.7429L411.287 68.9958L403.933 70.002L411.287 81.011L414.956 84.5105L418.373 112.296L420.735 121.307L425.192 132.331L401.052 141.583L388.974 160.612C388.974 160.612 379.006 171.125 378.486 171.876C377.966 172.627 356.173 182.39 356.173 182.39L365.888 201.659L380.848 217.429L367.715 213.434L365.353 235.212L346.457 260.234L323.891 269.756H314.443L292.397 259.738L284.523 266.752L279.799 286.772L287.673 287.028L290.035 292.78L286.885 299.043L278.492 303.789V308.805L282.429 315.053L278.225 324.575L266.414 325.326L267.202 335.329L261.422 340.345L260.115 356.611L235.44 394.654L225.204 396.907L252.242 510.301L242.274 517.811V536.84H237.015L234.92 577.887L175.601 605.928C172.452 607.43 162.484 617.943 162.484 617.943C162.484 617.943 155.665 625.948 154.091 626.459C152.516 626.969 142.013 629.463 142.013 629.463L139.383 636.462L112.613 653.989L118.912 658.99L112.613 663.496L124.691 682.525C124.691 682.525 123.116 696.042 124.171 700.548C125.226 705.054 144.642 722.581 144.642 722.581H155.13L188.199 725.585L206.575 712.068L212.874 715.312L253.423 716.438V710.806L215.441 710.626L209.725 707.246L247.723 678.515L253.423 684.523L260.509 686.4L264.446 700.863L266.619 701.99L279.799 697.109L278.823 693.159H267.202L265.044 683.396L268.587 670.254L267.595 663.871L288.854 647.726L304.995 656.993V652.232L334.127 654.995L374.014 658.75V643.731L382.943 625.197C382.943 625.197 384.785 612.191 387.667 606.679C390.548 601.167 408.138 569.627 408.138 569.627L418.106 563.379L433.601 563.874L451.174 589.407L449.867 578.893H452.497L453.804 557.116L491.078 536.585L509.706 524.569L530.697 509.31L561.939 484.018L613.905 465.004L626.502 458.485L639.1 448.723L653.005 435.957H663.24L650.91 389.157L644.611 383.645L643.037 378.644L645.651 375.881L644.076 370.879L645.399 359.87L691.852 317.817L680.294 308.054V298.037L689.49 299.794C689.49 299.794 692.372 281.516 691.852 277.265C691.333 273.015 688.435 253.235 688.435 253.235L647.761 250.982L647.225 248.474L676.893 186.896L688.168 138.579Z" fill="white"/>
<path d="M409.713 218.18L422.09 225.795L443.711 235.723V240.859L461.489 244.974L463.442 246.341L465.017 247.467L465.331 245.966L464.135 234.942L477.504 213.675H486.826L490.7 205.324L508.967 191.912L509.612 191.431L508.982 191.897L494.038 181.609L486.732 177.013L486.637 176.818L478.102 160.071L469.284 153.208L468.906 143.085L462.985 114.173L498.322 94.4681L501.156 90.0826L495.015 75.5141L487.409 63.3937L481.661 67.9895L477.992 58.0619L470.953 56.1094L477.252 48.7801L463.678 37.4407L456.182 44.3344L448.088 33.1603L445.112 30.5469L440.199 32.5144L435.743 29.6007L432.704 28.6245L427.869 27.483L424.216 30.1564L421.334 27.438H402.879L380.833 33.8361L406.768 62.4925L410.799 66.3825L412.673 69.5815L405.398 70.5728L412.043 80.5454L415.854 84.165L419.287 112.221L421.633 121.127L426.357 132.752L401.729 142.199L389.793 161.003C385.872 165.148 379.667 171.741 379.274 172.297C378.88 172.853 371.4 176.412 357.37 182.81L366.676 201.299L381.352 216.768L409.713 218.18Z" fill="#47BFAD"/>
<path d="M499.219 95.6847L464.67 114.939L470.465 142.95L470.859 152.487L479.456 159.29L487.944 175.992L494.92 180.392L510.336 191.011L509.911 191.221L509.612 191.431L510.273 191.882L510.982 192.377L511.769 191.987L523.296 199.932L560.192 223.137L567.845 225.69H611.732L624.109 237.119L624.156 237.179L633.888 243.082L640.376 246.356L646.8 249.585L646.548 248.384L646.659 248.158L676.279 186.655L687.585 138.264L694.955 128.712L709.064 93.0113L695.254 88.9261L664.5 71.8043L660.941 78.5779L642.423 59.0081L688.766 36.7799L687.853 29.7509L680.578 27.438H661.917L658.595 31.3429L617.684 43.9289L558.176 55.4335L546.996 62.4775L530.587 65.6015L527.264 56.3798L496.636 75.5441L502.841 90.2177L499.392 95.5795L499.219 95.6847Z" fill="#47BFAD"/>
<path d="M251.975 511.608L243.251 518.186V537.591H237.912L235.818 578.368L235.409 578.563L176.09 606.604C173.617 607.775 165.948 615.615 163.208 618.454C161.634 620.331 156.138 626.639 154.469 627.165C153.052 627.615 144.737 629.613 142.753 630.093L140.171 636.942L139.95 637.092L114.062 654.049L120.361 659.02L113.826 663.691L125.667 682.36V682.615C125.667 682.75 124.093 696.057 125.132 700.383C125.935 703.852 139.635 716.829 145.147 721.83H155.335L188.168 724.834L206.702 711.196L213.284 714.606L252.841 715.702V711.557L215.41 711.377L208.56 707.321L247.928 677.494L253.974 683.862L261.281 685.799L265.249 700.353L266.824 701.164L279.028 696.658L278.351 693.924H266.714L264.383 683.411L267.926 670.254L266.903 663.586L288.114 647.47L261.816 548.765L259.234 539.048L251.975 511.608Z" fill="#47BFAD"/>
<path d="M263.108 547.519L273.123 550.162L298.539 561.036L351.197 533.176L399.965 502.672L430.042 478.431L428.641 453.905L428.625 453.83L424.83 439.397L417.413 403.516L444.844 364.001L459.08 375.49L486.7 386.92L494.983 387.911L501.565 388.422L510.935 398.364L521.186 396.893L528.477 399.04L533.626 407.391L541.437 406.895L552.775 420.743L554.223 422.515L562.286 413.444L564.963 405.063V365.247L562.018 356.972L543.5 365.878H535.784L530.949 371.135L521.911 367.996H507.959L489.503 351.159L469.095 354.208L464.087 335.089L477.929 323.014L477.535 317.502L497.865 305.727L482.007 262.562L469.567 252.559L466.103 250.111L464.701 249.12L460.686 246.296L442.136 242.061V236.684L421.271 227.102L409.209 219.682L380.738 218.151L380.533 218.09L368.534 214.426L366.251 235.483L366.141 235.648L347.118 260.85L324.033 270.507L314.238 270.432L292.681 260.639L285.374 267.143L280.918 286.052L288.35 286.292L291.027 292.81L287.626 299.569L279.406 304.225V308.595L283.437 314.994L278.902 325.297L267.391 326.018L268.147 335.645L262.32 340.691L261.029 356.852L260.919 357.002L236.086 395.316L226.291 397.478L253.14 510.121V510.136L263.108 547.519Z" fill="#47BFAD"/>
<path d="M431.349 479.347L400.91 503.873L352.015 534.467L298.601 562.718L272.587 551.604L263.611 549.246L289.736 647.305L304.412 655.731V651.466L373.431 657.984V643.475L382.297 625.047C382.502 623.68 384.281 611.74 387.021 606.408C389.761 601.077 407.319 569.657 407.492 569.341L407.571 569.176L417.932 562.673L434.073 563.198L450.041 586.388L449.127 579.059L434.168 475.427L430.546 461.609L431.554 479.167L431.349 479.347Z" fill="#47BFAD"/>
<path d="M647.808 251.793L609.842 262.862H574.789L593.764 307.919L587.623 321.196L583.135 323.764L573.844 320.085L562.821 309.571L560.617 348.381L562.9 354.854L563.404 356.356L566.553 365.187V405.453L563.64 414.359L554.901 424.167L554.79 424.377L551.168 431.301L595.843 416.973L597.307 422.334L612.881 409.493L624.644 398.259L634.722 390.569L637.415 390.194L643.871 383.45L642.297 378.449L644.926 375.7L643.43 370.954L644.8 359.51L645.005 359.314L690.845 317.907L679.664 308.385V297.12L688.987 298.893C689.522 295.378 691.664 280.96 691.223 277.355C690.782 273.751 688.388 257.305 687.9 253.941L648.8 251.778H647.918L647.808 251.793Z" fill="#47BFAD"/>
<path d="M638.171 391.606L635.352 391.996L625.683 399.37L613.936 410.59L596.41 425.053L594.725 418.91L548.066 433.869L553.294 423.806L553.278 423.791L551.515 421.644L540.712 408.457L532.76 408.953L527.422 400.302L521.076 398.424L510.32 399.971L500.809 389.878L494.825 389.398L486.164 388.346L458.15 376.707L445.191 366.238L419.082 403.831L426.373 439.066L430.184 453.604V453.619L435.805 475.082L450.686 578.142H451.883L453.174 556.665L490.81 535.939L509.407 523.954L530.366 508.709L561.798 483.327L613.763 464.298L626.266 457.825L638.738 448.152L652.831 435.206H662.374L650.343 389.548L644.785 384.712L638.171 391.606Z" fill="#47BFAD"/>
<path d="M623.133 238.291L611.086 227.192L567.451 227.162L559.404 224.443L522.399 201.164L510.274 192.813L491.976 206.27L487.85 215.176H478.402L465.772 235.257L466.938 246.011L466.434 248.474L470.544 251.372L483.346 261.675L499.77 306.372L479.173 318.297L479.551 323.629L465.835 335.584L470.276 352.511L490.023 349.552L508.589 366.494L522.32 366.539L530.477 369.377L535.075 364.376H543.122L561.515 355.53L559.042 348.576L559.058 348.441L561.515 306.207L574.852 318.928L582.994 322.112L586.379 320.175L592.048 307.919L572.459 261.36H609.716L645.84 250.802L633.085 244.388L623.133 238.291Z" fill="#47BFAD"/>
</svg>
